<?xml version="1.0" standalone="no"?>
<!DOCTYPE svg PUBLIC "-//W3C//DTD SVG 20010904//EN"
 "http://www.w3.org/TR/2001/REC-SVG-20010904/DTD/svg10.dtd">
<svg version="1.0" xmlns="http://www.w3.org/2000/svg"
 width="420.000000pt" height="320.000000pt" viewBox="0 0 420.000000 320.000000"
 preserveAspectRatio="xMidYMid meet">

<g transform="translate(0.000000,320.000000) scale(0.100000,-0.100000)"
fill="#000000" stroke="none">
<path d="M1980 2894 c-14 -2 -68 -12 -120 -20 -335 -57 -640 -256 -839 -549
-39 -57 -71 -106 -71 -108 0 -3 -18 -43 -39 -89 -70 -150 -111 -346 -111 -535
0 -148 1 -150 63 -108 l37 26 1 102 c1 122 7 170 43 302 88 329 320 608 631
760 111 54 154 68 300 101 119 27 339 25 470 -4 146 -32 280 -85 388 -154 l47
-30 47 30 46 30 -72 47 c-194 126 -418 193 -666 200 -71 2 -141 2 -155 -1z"/>
<path d="M3408 2848 c-5 -13 19 -44 27 -36 7 6 -7 48 -15 48 -5 0 -10 -6 -12
-12z"/>
<path d="M3325 2816 c-11 -7 -57 -35 -103 -61 -52 -30 -79 -51 -72 -55 8 -5 9
-10 2 -14 -6 -3 -12 -1 -14 6 -3 8 -31 -4 -81 -32 -42 -25 -113 -65 -157 -90
-147 -81 -185 -106 -183 -118 2 -6 -4 -9 -11 -6 -8 3 -52 -17 -98 -44 -46 -27
-118 -69 -161 -93 -43 -24 -115 -66 -160 -93 -45 -26 -89 -51 -97 -54 -8 -3
-33 -17 -55 -32 -22 -15 -69 -43 -105 -62 -36 -19 -92 -51 -125 -71 -33 -20
-82 -48 -110 -63 -27 -14 -81 -45 -120 -69 -38 -23 -135 -79 -215 -125 -80
-46 -193 -112 -252 -146 -59 -35 -110 -64 -112 -64 -2 0 -34 -19 -72 -41 -37
-23 -88 -53 -113 -66 -45 -25 -67 -37 -283 -163 -76 -44 -108 -68 -108 -81 0
-11 -4 -19 -10 -19 -5 0 -6 8 -3 17 5 13 -4 11 -42 -11 -26 -16 -64 -37 -84
-48 -20 -10 -46 -27 -57 -36 -21 -16 -21 -18 -5 -44 l17 -27 39 18 c55 25 87
55 79 75 -3 9 -2 16 4 16 5 0 13 -7 16 -16 5 -13 14 -11 58 13 127 70 233 135
236 144 2 5 9 9 14 9 6 0 60 27 120 61 78 44 108 66 108 80 0 20 16 26 22 8 2
-5 64 24 138 67 74 42 155 88 178 101 24 14 51 33 60 44 9 10 24 19 33 19 12
0 16 6 12 20 -6 22 7 26 25 8 9 -9 13 -7 18 6 4 10 2 22 -5 29 -15 15 -14 27
4 27 9 0 12 -6 9 -15 -8 -20 5 -19 71 6 54 20 221 111 275 149 16 11 31 20 34
20 3 0 50 26 104 57 53 31 116 67 140 81 23 13 42 28 42 33 0 6 6 9 13 7 16
-4 147 71 147 83 0 5 8 9 17 9 26 0 83 43 89 68 6 21 24 32 24 13 0 -4 11 -6
25 -3 21 4 25 10 25 39 0 22 4 32 11 27 6 -3 9 -15 6 -25 -7 -24 -7 -25 61 12
107 59 152 91 152 108 0 13 2 13 9 2 17 -27 70 26 71 72 0 5 -6 5 -12 2 -7 -4
-2 3 12 14 35 29 44 26 24 -9 -10 -16 -15 -32 -12 -36 11 -10 266 139 272 160
3 13 10 17 22 12 10 -4 29 3 48 17 17 13 42 28 56 32 26 8 130 74 130 83 0 3
-8 11 -17 18 -17 13 -17 15 0 28 32 25 18 35 -18 12z m-435 -292 c0 -8 -4 -12
-10 -9 -5 3 -10 10 -10 16 0 5 5 9 10 9 6 0 10 -7 10 -16z m-1282 -746 c-3 -7
-15 -15 -28 -16 -21 -3 -22 -2 -11 12 16 19 44 21 39 4z m32 2 c0 -5 -4 -10
-10 -10 -5 0 -10 5 -10 10 0 6 5 10 10 10 6 0 10 -4 10 -10z m-93 -42 c-3 -8
-6 -5 -6 6 -1 11 2 17 5 13 3 -3 4 -12 1 -19z m-537 -288 c0 -5 -4 -10 -10
-10 -5 0 -10 5 -10 10 0 6 5 10 10 10 6 0 10 -4 10 -10z m-605 -360 c-3 -5
-10 -10 -16 -10 -5 0 -9 5 -9 10 0 6 7 10 16 10 8 0 12 -4 9 -10z"/>
<path d="M3514 2763 c-9 -32 -49 -54 -97 -55 -53 0 -157 -54 -157 -81 0 -14
-5 -17 -20 -12 -10 3 -34 -2 -52 -11 -43 -22 -43 -21 -29 -38 20 -23 5 -36
-27 -24 -25 10 -37 6 -94 -26 -36 -20 -72 -43 -78 -51 -7 -8 -19 -15 -27 -15
-8 0 -29 -10 -46 -23 -18 -13 -66 -41 -107 -62 -41 -21 -85 -46 -98 -56 -13
-10 -44 -28 -70 -40 -58 -28 -55 -25 -46 -40 11 -18 14 -79 5 -79 -13 0 -21
28 -15 45 8 21 -44 20 -74 -1 -27 -19 -29 -34 -2 -27 16 4 18 1 14 -20 -2 -14
0 -29 6 -32 5 -3 10 1 10 9 0 30 18 16 40 -30 12 -25 24 -43 27 -40 3 2 0 13
-6 25 -7 12 -7 22 -1 26 5 3 7 12 4 20 -4 9 1 18 12 22 10 4 19 2 22 -5 4 -13
65 14 117 53 17 12 56 34 89 50 64 30 63 30 91 -30 13 -27 14 -28 15 -7 1 66
77 157 157 188 65 25 160 16 207 -20 65 -49 90 -99 96 -187 3 -42 2 -75 -1
-73 -4 2 -18 -14 -33 -36 -21 -32 -24 -44 -16 -60 8 -16 8 -20 -4 -20 -8 0
-16 4 -18 9 -1 6 -25 -1 -51 -13 -36 -18 -44 -25 -31 -30 14 -5 15 -9 5 -19
-10 -9 -15 -8 -26 7 -14 18 -15 18 -26 -10 -12 -27 -13 -28 -16 -6 -3 17 -11
22 -33 22 -16 0 -53 11 -83 24 -62 27 -114 90 -123 148 l-6 37 -39 -26 c-22
-14 -39 -27 -39 -29 0 -7 61 -116 102 -181 21 -34 38 -68 38 -75 0 -11 -94
-68 -112 -68 -6 0 -29 38 -105 178 -20 35 -41 66 -48 68 -6 3 -32 -6 -57 -19
l-46 -24 33 -59 c17 -33 50 -91 72 -131 l41 -72 -32 -25 c-24 -20 -28 -27 -18
-34 17 -11 12 -44 -6 -50 -9 -3 -11 3 -7 21 6 23 4 25 -26 24 -31 -2 -35 2
-76 78 -25 44 -70 125 -102 180 -42 71 -56 104 -49 112 12 15 2 47 -12 38 -5
-3 -10 0 -10 8 0 20 44 15 52 -5 6 -15 11 -16 33 -6 19 8 23 14 14 22 -8 8
-13 7 -16 -1 -7 -19 -23 -16 -23 5 0 15 -6 17 -35 14 -34 -4 -36 -3 -29 22 6
25 3 24 -92 -30 -55 -31 -101 -59 -104 -63 -3 -4 -20 -13 -37 -20 -18 -8 -33
-20 -33 -27 0 -8 -5 -14 -11 -14 -6 0 -7 6 -2 13 4 6 -5 4 -20 -6 -15 -10 -51
-31 -80 -48 -29 -16 -59 -34 -67 -39 -26 -16 -192 -111 -268 -154 -41 -22 -85
-51 -98 -63 -14 -13 -29 -23 -35 -23 -5 0 -9 -4 -9 -10 0 -5 9 -10 20 -10 16
0 20 -7 20 -32 l0 -33 -20 25 c-24 32 -38 18 -22 -23 8 -21 9 -33 2 -35 -6 -2
-8 -8 -5 -12 3 -5 1 -11 -5 -15 -5 -3 -10 -3 -11 2 -2 29 -10 47 -24 63 -16
18 -16 19 4 32 23 14 28 28 9 28 -19 0 -441 -247 -446 -261 -2 -5 -11 -9 -21
-9 -26 0 -61 -29 -55 -45 4 -8 2 -15 -4 -15 -6 0 -12 5 -14 12 -5 13 -97 -38
-105 -58 -3 -8 -9 -12 -13 -9 -5 3 -64 -26 -131 -65 -67 -38 -126 -70 -131
-70 -4 0 -8 -6 -8 -14 0 -8 -13 -19 -30 -25 -16 -5 -30 -15 -30 -21 0 -6 -4
-8 -10 -5 -5 3 -23 -1 -39 -10 -27 -14 -29 -18 -21 -41 12 -30 8 -40 -19 -47
-18 -4 -24 14 -8 29 10 11 8 34 -3 34 -15 0 -80 -69 -70 -75 5 -3 29 -42 54
-88 26 -45 57 -100 70 -122 55 -94 141 -243 164 -283 23 -40 42 -48 42 -16 0
8 5 12 11 8 14 -8 79 27 79 43 0 7 6 10 13 8 6 -3 48 16 92 41 134 78 127 72
115 94 -12 22 -14 67 -2 56 4 -4 7 -11 7 -14 0 -4 7 -17 16 -29 l15 -22 49 32
c28 17 70 42 95 54 25 13 74 41 110 63 36 22 100 58 143 81 81 44 103 71 92
113 -5 16 -2 15 12 -7 21 -33 23 -33 71 -4 21 12 105 60 185 106 82 46 147 90
147 98 0 8 5 11 10 8 13 -8 137 58 165 87 11 12 16 19 10 16 -5 -2 -20 6 -31
18 -21 21 -21 23 -3 27 12 3 24 -2 32 -14 8 -10 17 -16 20 -12 4 3 7 1 7 -5 0
-16 45 2 87 34 17 13 34 24 37 24 5 0 304 171 445 255 9 6 60 34 113 64 53 29
105 61 115 70 10 10 20 17 23 18 18 1 92 46 97 58 3 8 9 12 14 9 8 -4 56 19
117 57 11 7 23 21 25 31 3 10 10 18 17 18 6 0 8 -4 5 -10 -9 -15 1 -12 45 10
28 14 40 27 40 42 0 17 3 19 11 11 16 -16 89 21 96 47 3 11 11 16 19 13 23 -9
273 134 274 157 0 13 1 13 10 0 10 -15 12 -11 14 25 1 20 7 22 36 11 8 -3 21
-2 28 3 10 6 9 15 -8 42 -12 19 -65 108 -117 199 -181 314 -183 317 -189 293z
m-62 -125 c-7 -7 -12 -8 -12 -2 0 6 3 14 7 17 3 4 9 5 12 2 2 -3 -1 -11 -7
-17z m-254 -62 c-7 -8 -15 -12 -17 -11 -5 6 10 25 20 25 5 0 4 -6 -3 -14z
m126 -12 c19 -7 22 -34 4 -34 -22 0 -41 17 -34 29 8 13 9 13 30 5z m-54 -14
c0 -5 -2 -10 -4 -10 -3 0 -8 5 -11 10 -3 6 -1 10 4 10 6 0 11 -4 11 -10z
m-100 -101 c0 -5 -4 -9 -10 -9 -5 0 -10 7 -10 16 0 8 5 12 10 9 6 -3 10 -10
10 -16z m-220 -39 c0 -5 -4 -10 -10 -10 -5 0 -10 5 -10 10 0 6 5 10 10 10 6 0
10 -4 10 -10z m-55 -30 c8 -13 -4 -70 -14 -70 -5 0 -8 18 -8 40 0 39 9 51 22
30z m-75 -19 c0 -6 -4 -13 -10 -16 -5 -3 -10 1 -10 9 0 9 5 16 10 16 6 0 10
-4 10 -9z m840 -25 c0 -3 -4 -8 -10 -11 -5 -3 -10 -1 -10 4 0 6 5 11 10 11 6
0 10 -2 10 -4z m-810 -32 c0 -8 -4 -14 -10 -14 -5 0 -10 9 -10 21 0 11 5 17
10 14 6 -3 10 -13 10 -21z m-40 5 c0 -5 -9 -9 -20 -9 -22 0 -43 -32 -34 -54 3
-8 -3 -19 -15 -25 -15 -9 -23 -7 -37 7 -17 16 -17 17 5 20 22 4 22 4 4 24 -17
21 -17 21 0 15 13 -5 20 -2 24 11 3 13 14 18 39 19 19 1 34 -3 34 -8z m907
-31 c-3 -13 -10 -39 -16 -58 -9 -35 -10 -34 -9 15 1 55 4 65 20 65 6 0 8 -10
5 -22z m43 -19 c0 -5 -4 -9 -10 -9 -5 0 -10 7 -10 16 0 8 5 12 10 9 6 -3 10
-10 10 -16z m-1096 -4 c-25 -19 -40 -19 -24 0 7 8 20 15 28 15 13 0 12 -3 -4
-15z m775 -217 c1 -5 -3 -8 -9 -8 -5 0 -10 12 -9 28 0 24 1 25 9 7 5 -11 9
-23 9 -27z m-1104 2 c3 -5 1 -10 -4 -10 -6 0 -11 5 -11 10 0 6 2 10 4 10 3 0
8 -4 11 -10z m-85 -15 c0 -8 -4 -15 -10 -15 -5 0 -10 7 -10 15 0 8 5 15 10 15
6 0 10 -7 10 -15z m-12 -50 c-3 -3 -9 2 -12 12 -6 14 -5 15 5 6 7 -7 10 -15 7
-18z m72 -4 c0 -17 4 -18 33 -10 103 28 197 -88 164 -201 -7 -23 -2 -28 50
-57 77 -43 96 -59 88 -73 -5 -8 -11 -8 -17 -2 -7 7 -26 1 -58 -19 -26 -16 -55
-29 -64 -29 -10 0 -37 16 -60 35 -68 56 -102 44 -64 -22 12 -21 26 -39 30 -41
4 -2 8 -10 8 -18 0 -15 -109 -73 -126 -67 -6 2 -14 -5 -17 -17 -3 -11 -10 -20
-16 -20 -6 0 -5 12 4 32 12 29 11 37 -6 68 -33 63 -35 62 -35 -2 0 -38 -7 -75
-17 -94 -21 -40 -99 -112 -131 -120 -21 -5 -26 -13 -27 -38 -2 -30 -2 -30 -6
-3 -4 26 -7 27 -63 27 -98 0 -157 39 -208 140 l-12 25 5 -25 c15 -79 36 -252
32 -262 -3 -7 -34 -28 -70 -47 l-65 -34 -44 34 c-23 18 -72 58 -108 89 -35 30
-69 58 -75 62 -33 24 -111 93 -118 104 -6 10 -2 14 13 14 12 0 20 7 20 16 0 9
6 14 13 11 6 -2 29 4 50 15 l37 19 58 -53 c31 -29 75 -70 97 -90 21 -20 41
-35 43 -33 2 2 -4 39 -13 82 -37 172 -38 176 -21 189 9 6 16 19 16 28 0 10 11
19 30 23 26 5 30 10 30 38 0 39 8 48 27 30 10 -10 11 -20 5 -32 -7 -11 -6 -21
4 -31 8 -7 14 -28 15 -45 0 -18 4 -41 9 -52 7 -17 9 -15 9 12 2 54 56 139 113
176 36 23 107 47 140 47 14 0 47 -9 72 -20 25 -10 46 -17 46 -14 0 4 9 -4 20
-17 l21 -24 -17 35 c-9 19 -28 52 -42 73 -15 22 -21 41 -16 46 5 5 41 25 79
46 104 56 127 75 122 96 -3 11 -1 19 4 19 5 0 9 -9 9 -19z m-110 -5 c0 -3 -4
-8 -10 -11 -5 -3 -10 -1 -10 4 0 6 5 11 10 11 6 0 10 -2 10 -4z m840 -56 c0
-5 -5 -10 -11 -10 -5 0 -7 5 -4 10 3 6 8 10 11 10 2 0 4 -4 4 -10z m57 -62
c-3 -7 -5 -2 -5 12 0 14 2 19 5 13 2 -7 2 -19 0 -25z m-109 -43 c-3 -3 -9 2
-12 12 -6 14 -5 15 5 6 7 -7 10 -15 7 -18z m72 5 c0 -11 -4 -20 -9 -20 -11 0
-22 26 -14 34 12 12 23 5 23 -14z m-1166 -25 c-4 -8 -8 -15 -10 -15 -2 0 -4 7
-4 15 0 8 4 15 10 15 5 0 7 -7 4 -15z m1106 -10 c0 -8 -4 -15 -10 -15 -5 0
-10 7 -10 15 0 8 5 15 10 15 6 0 10 -7 10 -15z m-205 -75 c-3 -5 -10 -10 -16
-10 -5 0 -9 5 -9 10 0 6 7 10 16 10 8 0 12 -4 9 -10z m-190 -134 c-8 -39 -25
-49 -25 -15 0 23 19 63 26 56 3 -3 2 -21 -1 -41z m-389 -164 c-17 -16 -18 -16
-5 5 7 12 15 20 18 17 3 -2 -3 -12 -13 -22z m-986 -16 c0 -3 -4 -8 -10 -11 -5
-3 -10 -1 -10 4 0 6 5 11 10 11 6 0 10 -2 10 -4z m38 -7 c-2 -6 -8 -10 -13
-10 -5 0 -11 4 -13 10 -2 6 4 11 13 11 9 0 15 -5 13 -11z m-71 -35 c-3 -4 -14
-3 -24 0 -15 6 -15 8 -3 16 16 10 39 -4 27 -16z m167 -71 c165 -138 189 -158
217 -178 34 -24 32 -35 -7 -54 -16 -8 -31 -17 -34 -20 -3 -3 -17 -12 -32 -20
-25 -13 -30 -12 -47 3 -18 16 -21 15 -77 -18 -53 -32 -58 -39 -56 -65 3 -26
-1 -32 -32 -45 -20 -8 -36 -21 -36 -29 0 -8 -10 -13 -22 -13 -18 1 -23 -5 -23
-24 0 -14 -4 -25 -10 -25 -5 0 -9 9 -8 20 1 11 -3 41 -8 66 -14 61 -17 81 -18
97 -1 9 -23 2 -68 -23 -101 -55 -99 -52 -58 -119 19 -32 35 -60 35 -62 0 -2
-11 -14 -25 -28 -14 -14 -25 -23 -25 -21 0 2 -16 -3 -35 -11 -19 -8 -35 -10
-35 -6 0 5 -11 25 -24 44 -12 19 -37 59 -53 89 -17 30 -52 90 -77 134 -25 44
-46 83 -46 87 0 5 14 17 31 27 17 10 37 28 45 39 8 12 21 18 32 15 30 -7 78
50 74 88 -3 22 0 29 8 24 7 -4 10 -20 8 -36 -5 -33 -3 -34 32 -14 14 8 31 14
37 15 17 0 67 -76 60 -93 -3 -8 -39 -31 -81 -53 -53 -28 -73 -43 -67 -52 11
-18 98 24 105 51 2 10 9 16 15 13 6 -4 20 -2 31 4 17 9 22 7 32 -15 27 -59 35
-17 18 90 -21 134 -22 147 -2 141 9 -3 39 7 67 24 28 16 54 29 58 29 4 1 50
-34 101 -76z m-204 53 c0 -8 -9 -13 -24 -12 -18 1 -22 4 -14 14 14 16 38 15
38 -2z m1012 -18 c-15 -15 -26 -4 -18 18 5 13 9 15 18 6 9 -9 9 -15 0 -24z
m39 -1 c-8 -8 -11 -7 -11 4 0 9 3 19 7 23 4 4 9 2 11 -4 3 -7 -1 -17 -7 -23z
m-1121 13 c0 -5 -4 -10 -10 -10 -5 0 -10 5 -10 10 0 6 5 10 10 10 6 0 10 -4
10 -10z m895 -67 c-5 -10 -9 -21 -9 -25 -1 -12 -20 -11 -24 1 -2 6 1 11 8 11
6 0 10 6 9 13 -4 30 1 41 12 30 7 -7 8 -19 4 -30z m45 -13 c0 -5 -4 -10 -10
-10 -5 0 -10 5 -10 10 0 6 5 10 10 10 6 0 10 -4 10 -10z m-187 -46 c-4 -10 1
-17 16 -21 11 -3 21 -12 21 -20 0 -11 -6 -14 -22 -9 -13 3 -28 6 -34 6 -6 0
-11 14 -11 30 0 22 5 30 18 30 13 0 16 -5 12 -16z m54 -36 c-3 -8 -6 -5 -6 6
-1 11 2 17 5 13 3 -3 4 -12 1 -19z m-197 -118 c0 -5 -4 -10 -10 -10 -5 0 -10
5 -10 10 0 6 5 10 10 10 6 0 10 -4 10 -10z m-1195 -10 c-3 -5 -11 -10 -16 -10
-6 0 -7 5 -4 10 3 6 11 10 16 10 6 0 7 -4 4 -10z m108 -50 c7 0 6 -4 -3 -10
-22 -14 -30 -12 -30 8 0 25 14 38 18 18 2 -9 9 -16 15 -16z m-83 -42 c0 -16
-3 -19 -11 -11 -6 6 -8 16 -5 22 11 17 16 13 16 -11z m-45 2 c3 -5 -1 -10 -10
-10 -9 0 -13 5 -10 10 3 6 8 10 10 10 2 0 7 -4 10 -10z m890 -90 c-3 -5 -11
-10 -16 -10 -6 0 -7 5 -4 10 3 6 11 10 16 10 6 0 7 -4 4 -10z m-778 -72 c-3
-7 -5 -2 -5 12 0 14 2 19 5 13 2 -7 2 -19 0 -25z m563 28 c0 -3 -4 -8 -10 -11
-5 -3 -10 -1 -10 4 0 6 5 11 10 11 6 0 10 -2 10 -4z m120 -6 c0 -5 -4 -10 -9
-10 -5 0 -18 -3 -28 -7 -16 -6 -16 -5 -4 10 15 19 41 23 41 7z m-653 -72 c-3
-8 -6 -5 -6 6 -1 11 2 17 5 13 3 -3 4 -12 1 -19z m488 -18 c3 -5 1 -10 -4 -10
-6 0 -11 5 -11 10 0 6 2 10 4 10 3 0 8 -4 11 -10z m-426 -3 c-2 -1 -13 -9 -24
-17 -19 -14 -19 -14 -6 3 7 9 18 17 24 17 6 0 8 -1 6 -3z m59 -156 c3 -8 -1
-12 -9 -9 -7 2 -15 10 -17 17 -3 8 1 12 9 9 7 -2 15 -10 17 -17z m15 -41 c-6
-21 -18 -26 -28 -11 -4 7 17 28 32 31 0 0 -1 -9 -4 -20z"/>
<path d="M2308 1814 c-29 -15 -34 -29 -18 -54 7 -12 13 -12 32 -1 45 24 61 40
55 56 -8 19 -34 19 -69 -1z"/>
<path d="M1947 1604 c-55 -29 -64 -95 -18 -146 23 -26 36 -32 65 -31 49 1 89
28 81 54 -4 11 -2 19 4 19 21 0 10 50 -18 82 -32 36 -72 44 -114 22z m23 -34
c0 -5 -4 -10 -10 -10 -5 0 -10 5 -10 10 0 6 5 10 10 10 6 0 10 -4 10 -10z"/>
<path d="M1274 1154 c3 -9 6 -23 6 -32 0 -34 15 -45 41 -32 13 7 26 14 27 16
5 4 -61 63 -72 64 -4 0 -5 -7 -2 -16z"/>
<path d="M3485 2760 c3 -5 8 -10 11 -10 2 0 4 5 4 10 0 6 -5 10 -11 10 -5 0
-7 -4 -4 -10z"/>
<path d="M1925 2704 c-84 -13 -162 -33 -210 -53 -11 -5 -46 -19 -78 -31 -100
-39 -228 -126 -330 -227 -178 -174 -275 -366 -322 -636 -16 -89 -20 -207 -7
-207 23 0 32 30 32 105 0 162 74 384 184 550 85 130 259 285 401 358 76 38
222 88 301 102 110 19 285 19 393 0 118 -21 139 -27 298 -100 75 -34 113 -39
97 -13 -10 15 -156 82 -244 112 -90 30 -262 56 -356 55 -38 -1 -109 -7 -159
-15z"/>
<path d="M3086 2259 c-21 -17 -26 -29 -26 -65 0 -32 3 -43 12 -38 7 5 9 2 5
-8 -7 -21 21 -46 61 -54 50 -10 111 36 112 84 0 43 -40 98 -65 88 -8 -3 -17
-1 -20 4 -10 17 -51 11 -79 -11z"/>
<path d="M3850 2182 c0 -7 -6 -12 -13 -12 -14 0 -16 -34 -4 -46 12 -13 7 -24
-10 -24 -13 0 -14 -3 -6 -11 9 -9 19 -6 42 10 36 26 39 50 11 76 -11 10 -20
13 -20 7z"/>
<path d="M3786 2138 c-9 -12 -16 -35 -16 -50 0 -20 -4 -26 -15 -22 -8 4 -15
17 -15 31 0 20 -3 23 -13 15 -7 -6 -42 -26 -78 -45 -58 -30 -103 -56 -208
-118 -19 -11 -98 -57 -175 -101 -78 -45 -144 -86 -148 -92 -4 -6 -8 -24 -8
-39 0 -19 -4 -27 -12 -24 -7 2 -12 14 -10 25 4 26 -13 22 -73 -18 -22 -15 -49
-30 -60 -34 -47 -17 -153 -89 -158 -107 -3 -12 -11 -17 -21 -13 -20 8 -75 -17
-81 -36 -4 -14 -60 -44 -77 -42 -3 1 -51 -24 -105 -55 -54 -31 -125 -72 -158
-90 -33 -19 -73 -42 -90 -52 -32 -19 -61 -64 -45 -69 6 -2 10 -10 10 -18 0 -8
3 -14 8 -14 15 0 72 40 72 50 0 6 5 8 10 5 6 -4 18 -1 26 6 8 7 41 26 72 43
88 48 151 84 310 177 81 47 168 98 194 112 26 15 54 35 64 45 10 9 19 16 21
15 2 -2 6 -3 11 -3 4 1 -6 7 -23 14 -19 8 -25 15 -17 20 7 4 12 3 12 -2 0 -18
94 1 139 28 25 15 80 47 121 71 41 24 77 46 80 49 3 3 25 15 50 28 25 12 79
43 120 67 41 25 105 61 142 81 37 20 79 46 92 59 14 13 27 21 30 18 2 -3 15 2
28 11 18 13 19 16 5 16 -14 0 -16 6 -11 28 4 15 11 33 17 40 5 6 7 12 4 12 -3
0 -13 -10 -21 -22z m-1506 -898 c0 -5 -4 -10 -10 -10 -5 0 -10 5 -10 10 0 6 5
10 10 10 6 0 10 -4 10 -10z"/>
<path d="M3338 1714 l-38 -24 -1 -103 c-1 -122 -7 -170 -43 -302 -88 -329
-320 -608 -631 -760 -179 -87 -321 -119 -525 -119 -235 0 -451 60 -633 176
l-47 30 -47 -30 -46 -30 72 -47 c129 -83 268 -140 436 -176 80 -18 133 -22
265 -22 231 0 374 32 575 128 195 94 376 251 503 438 40 58 72 108 72 110 0 3
18 43 39 89 70 150 111 346 111 536 0 147 0 147 -62 106z"/>
<path d="M3197 1633 c-4 -3 -7 -25 -7 -47 0 -114 -51 -335 -99 -433 -17 -34
-31 -64 -31 -67 0 -22 -123 -187 -190 -254 -117 -118 -205 -175 -405 -262 -76
-33 -242 -60 -370 -60 -179 0 -350 41 -514 125 -30 15 -60 24 -70 20 -14 -6
-14 -8 4 -22 11 -8 45 -26 75 -40 30 -14 74 -34 98 -44 123 -56 355 -88 515
-70 105 11 235 40 290 65 129 57 174 80 240 125 257 173 437 470 477 784 17
140 12 206 -13 180z"/>
<path d="M2167 1213 c-9 -2 -15 -9 -12 -14 4 -5 1 -17 -4 -26 -10 -17 -10 -17
-11 0 0 25 -9 22 -81 -25 -35 -23 -66 -42 -69 -43 -11 0 -157 -80 -207 -112
-29 -18 -55 -33 -58 -33 -3 0 -29 -15 -58 -33 -29 -18 -103 -62 -165 -97 -63
-36 -126 -73 -140 -82 -15 -10 -37 -22 -48 -27 -12 -5 -66 -36 -120 -67 -55
-32 -139 -80 -187 -108 -49 -28 -108 -62 -132 -76 -24 -14 -51 -32 -62 -41
-10 -9 -28 -20 -41 -24 -17 -5 -22 -11 -17 -23 4 -10 10 -26 13 -37 4 -17 1
-15 -21 8 -14 15 -29 27 -32 27 -12 0 -4 -29 14 -51 16 -20 21 -21 34 -10 9 7
31 21 49 30 44 24 176 98 263 148 191 110 228 133 241 152 8 11 21 18 28 15 8
-3 51 17 97 44 46 27 106 61 132 76 27 15 51 34 54 42 3 8 9 11 14 9 9 -6 63
18 89 40 8 7 47 29 85 50 39 21 75 41 81 46 6 5 42 26 80 47 111 62 239 135
242 138 4 2 -27 65 -31 63 -1 -1 -10 -3 -20 -6z m-427 -313 c0 -5 -7 -10 -16
-10 -8 0 -12 5 -9 10 3 6 10 10 16 10 5 0 9 -4 9 -10z m-125 -30 c-3 -5 -11
-10 -16 -10 -6 0 -7 5 -4 10 3 6 11 10 16 10 6 0 7 -4 4 -10z m-15 -38 c0 -5
-9 -17 -20 -27 -22 -20 -26 -14 -10 16 11 19 30 26 30 11z m-430 -222 c0 -5
-7 -10 -16 -10 -8 0 -12 5 -9 10 3 6 10 10 16 10 5 0 9 -4 9 -10z m-376 -236
c3 -8 2 -12 -4 -9 -6 3 -10 10 -10 16 0 14 7 11 14 -7z"/>
</g>
</svg>
